<svg id="Layer_1" data-name="Layer 1" xmlns="http://www.w3.org/2000/svg" viewBox="0 0 1135.91 197.24"><defs><style>.cls-1{fill:#09b781;}.cls-2{fill:#002333;}</style></defs><path class="cls-1" d="M188.09,139.89a18.84,18.84,0,1,0-26.16-27.12,18.84,18.84,0,0,0,26.16,27.12Z"/><path class="cls-1" d="M59.6,188.54a18.84,18.84,0,0,0,27.11-26.17A18.84,18.84,0,0,0,59.6,188.54Z"/><path class="cls-1" d="M11.18,59.09A18.84,18.84,0,1,0,37.34,86.2,18.84,18.84,0,0,0,11.18,59.09Z"/><path class="cls-1" d="M140.45,11.2a18.84,18.84,0,0,0-27.12,26.17A18.84,18.84,0,0,0,140.45,11.2Z"/><path class="cls-1" d="M180.81,69.35A17.92,17.92,0,0,0,186,55.73v-.14c-.85-15.49-19.63-22.68-30.6-11.71L137.64,62c-5.68,5.68-18.81,6.55-25.56-.2l-42.46-43a18,18,0,0,0-12.89-5.45c-16,0-24,19.33-12.68,30.63L62,61.24c6.51,7.09,5.8,19.57,0,25.37l-43,43.09a17.94,17.94,0,0,0-5.25,12.48v.4c-.19,16.09,19.25,24.27,30.63,12.9l17.87-18c6.22-6.22,19.16-6.29,25.67.23l42.28,42.53a18,18,0,0,0,13.22,5.25h.06c15.72-.47,23.27-19.5,12.15-30.62l-17.08-17.26c-6.33-6.33-6.81-18.56,0-25.33Zm-67,44.4a19.8,19.8,0,0,1-27.5-28.5,19.8,19.8,0,1,1,27.5,28.5Z"/><path class="cls-2" d="M262.73,86.43v65.25h-21.3V51.63h21.9l46.35,62.85V51.63H331V151.68H310.43Z"/><path class="cls-2" d="M380.18,77.43c21.6,0,36.29,16.2,36.29,39.9v4.2H362.63c1.2,9.15,8.55,16.8,20.85,16.8,6.75,0,14.7-2.7,19.34-7.2l8.4,12.3c-7.2,6.6-18.59,10-29.84,10-22.05,0-38.7-14.85-38.7-38.1C342.68,94.38,358.13,77.43,380.18,77.43Zm-17.85,31.2H398c-.45-6.9-5.25-16-17.85-16C368.33,92.58,363.23,101.43,362.33,108.63Z"/><path class="cls-2" d="M455.63,127.23,439,151.68H417.83l25.65-37.2L419.33,79.23h21.3l15,22.35,14.84-22.35h21.3l-24.3,35.25,25.95,37.2h-21.3Z"/><path class="cls-2" d="M548.77,142.53a33.9,33.9,0,0,1-25.49,10.95c-15.9,0-23.4-8.7-23.4-22.8V79.23h19v44c0,10,5.25,13.35,13.34,13.35a21.33,21.33,0,0,0,16.5-8.25v-49h19.05v72.45H548.77Z"/><path class="cls-2" d="M585.68,128.88c5.24,5,16,9.9,25,9.9,8.25,0,12.15-3.3,12.15-7.8,0-4.95-6.6-6.3-14.55-7.8-12.45-2.4-28.49-5.55-28.49-23,0-12.15,10.64-22.8,29.69-22.8a46.28,46.28,0,0,1,29.25,9.9l-7.65,13c-4.35-4.65-12.6-8.4-21.45-8.4-6.9,0-11.4,3.15-11.4,7.2s5.7,5.4,13.8,7c12.45,2.4,29.1,5.85,29.1,24,0,13.2-11.25,23.25-31.35,23.25-12.6,0-24.75-4.2-32.39-11.25Z"/><path class="cls-2" d="M775.12,81.63l-28.2,70.05h-9.3l-28.2-70.05v70.05h-21.3V51.63H718l24.3,60.45,24.3-60.45h30V151.68H775.12Z"/><path class="cls-2" d="M861.82,142.53a33.91,33.91,0,0,1-25.5,10.95c-15.9,0-23.4-8.7-23.4-22.8V79.23H832v44c0,10,5.25,13.35,13.35,13.35a21.33,21.33,0,0,0,16.5-8.25v-49h19v72.45h-19Z"/><path class="cls-2" d="M900.52,133.68V95.88h-12V79.23h12V59.43h19.2v19.8h14.7V95.88h-14.7v32.7c0,4.5,2.4,7.95,6.6,7.95,2.85,0,5.55-1.05,6.6-2.1l4.05,14.4c-2.85,2.55-8,4.65-15.9,4.65C907.72,153.48,900.52,146.58,900.52,133.68Z"/><path class="cls-2" d="M993.37,142.53a33.91,33.91,0,0,1-25.5,10.95c-15.9,0-23.4-8.7-23.4-22.8V79.23h19v44c0,10,5.25,13.35,13.35,13.35a21.33,21.33,0,0,0,16.5-8.25v-49h19v72.45h-19Z"/><path class="cls-2" d="M1071.82,144.18c-5,5.85-13.5,9.3-23,9.3-11.55,0-25.2-7.8-25.2-24,0-16.95,13.65-23.1,25.2-23.1,9.6,0,18.15,3,23,8.85v-10c0-7.35-6.3-12.15-15.9-12.15a30.48,30.48,0,0,0-21.15,8.55l-7.2-12.75c8.85-7.8,20.25-11.4,31.65-11.4,16.5,0,31.65,6.6,31.65,27.45v46.8h-19Zm0-18.9c-3.15-4.2-9.15-6.3-15.3-6.3-7.5,0-13.65,3.9-13.65,11,0,6.75,6.15,10.65,13.65,10.65,6.15,0,12.15-2.1,15.3-6.3Z"/><path class="cls-2" d="M1106.77,51.63h19V151.68h-19Z"/></svg>