<svg width="400" height="400" viewBox="0 0 400 400" fill="none" xmlns="http://www.w3.org/2000/svg">
<rect width="400" height="400" rx="200" fill="#002332"/>
<path d="M344.833 265.95C357.164 254.198 357.514 234.653 345.615 222.374C333.671 210.046 314.318 209.704 302.045 221.606C290.014 233.271 289.613 252.864 301.159 264.955C312.886 277.231 332.525 277.681 344.833 265.95Z" fill="#0AB682"/>
<path d="M134.672 345.517C146.425 357.849 165.969 358.198 178.249 346.299C190.577 334.355 190.919 315.002 179.017 302.73C167.352 290.698 147.758 290.297 135.667 301.843C123.392 313.571 122.941 333.21 134.672 345.517Z" fill="#0AB682"/>
<path d="M55.4824 133.802C43.1507 145.555 42.8016 165.099 54.7003 177.379C66.6444 189.707 85.9973 190.049 98.2696 178.147C110.301 166.482 110.703 146.888 99.1564 134.798C87.4288 122.522 67.7896 122.071 55.4824 133.802Z" fill="#0AB682"/>
<path d="M266.91 55.4822C255.157 43.1506 235.613 42.8014 223.333 54.7001C211.005 66.6443 210.666 85.9972 222.565 98.2695C234.23 110.301 253.824 110.702 265.915 99.1563C278.194 87.4286 278.641 67.7894 266.91 55.4822Z" fill="#0AB682"/>
<path d="M332.93 150.589C338.786 144.696 341.865 136.596 341.411 128.304L341.397 128.073C340.008 102.739 309.297 90.9908 291.351 108.926L262.327 138.481C253.03 147.775 231.55 149.189 220.514 138.153L151.063 67.8812C145.532 62.1762 137.925 58.9607 129.982 58.9641C103.845 58.9746 90.7662 90.5754 109.246 109.055L138.522 137.318C149.171 148.91 148.011 169.324 138.522 178.814L68.1768 249.295C62.7581 254.714 59.6752 262.035 59.5844 269.699L59.5775 270.355C59.2667 296.663 91.063 310.052 109.665 291.45L138.899 262.084C149.069 251.91 170.231 251.798 180.887 262.458L250.037 332.017C255.756 337.732 263.574 340.84 271.656 340.599L271.75 340.595C297.465 339.838 309.821 308.708 291.631 290.518L263.692 262.29C253.333 251.931 252.555 231.932 263.622 220.864L332.93 150.589ZM223.307 223.197C210.368 235.528 189.723 235.057 177.395 222.149C165.259 209.44 165.678 188.841 178.327 176.579C191.228 164.073 211.573 164.429 224.128 177.389C236.637 190.297 236.267 210.844 223.307 223.197Z" fill="#0AB682"/>
</svg>
